<?xml version="1.0" encoding="UTF-8"?>
<svg version="1.1" viewBox="0 0 1600 1136" width="1280" height="1280" xmlns="http://www.w3.org/2000/svg">
<path transform="translate(89.1 -.758)" d="m0 0c2.53-0.01 5.05-0.02 7.58-0.03 5.48-0.02 11-0.02 16.4 0 8.21 0.02 16.4 0.01 24.6-0.01 14-0.03 28-0.03 42-0.01 14.2 0.01 28.3 0.02 42.5 0h2.71c3.65-0.01 7.3-0.01 11-0.01 36-0.04 72-0.04 108-0.03 30.7 0.01 61.4 0.02 92.1 0.01 2.06 0 4.12-0.01 6.17-0.01h24.8c23.1-0.01 46.2-0.02 69.3-0.02h3.19c33.5 0 67.1 0 101 0.01h3.29c17.7 0.01 35.3 0.02 53 0.02 70 0.03 140 0.02 210-0.02 17.6-0.01 35.3-0.02 52.9-0.03h3.29c33.5-0.02 67-0.02 100-0.02h3.18 69.3c8.26 0.01 16.5 0.01 24.8 0.01h6.16c32.7 0.01 65.5-0.01 98.2-0.03 33.9-0.02 67.8-0.02 102 0.02 3.64 0 7.28 0 10.9 0.01h2.7c14.1 0.01 28.3 0 42.4-0.02 13.9-0.02 27.8-0.02 41.7 0.02 8.14 0.01 16.3 0.01 24.4-0.02 6.06-0.02 12.1 0 18.2 0.03 2.42 0.01 4.85 0 7.28-0.02 23.4-0.16 44.2 5.11 61.5 21.6l2.3 2.3c0.69 0.66 1.38 1.33 2.08 2.01 4.25 4.4 7.52 9.24 10.6 14.5 0.36 0.58 0.71 1.17 1.08 1.77 7.29 13 8.97 26.9 8.87 41.5 0 1.73 0.01 3.46 0.02 5.19 0.02 4.72 0.01 9.44 0 14.2-0.01 5.15 0 10.3 0.02 15.4 0.02 9.01 0.02 18 0.01 27-0.01 13.4 0 26.8 0.02 40.2 0.04 24.6 0.04 49.3 0.03 73.9v10.5 2.1c-0.01 15.4 0 30.7 0.01 46.1v6.31c0 4.94 0.01 9.88 0.01 14.8 0.02 40.1 0.03 80.2 0.02 120 0 0.75 0 1.49-0.01 2.25v24.8 2.26c-0.01 6.12-0.01 6.12-0.01 9.06-0.01 47.8 0 95.6 0.04 143 0.02 12 0.03 24.1 0.04 36.1v2.24c0.02 22.9 0.03 45.7 0.03 68.6v2.18c0 15.8 0 31.5-0.01 47.3v16.9 4.21c0 22.3 0.01 44.6 0.04 67 0.02 23.1 0.02 46.2-0.01 69.4-0.01 13.3-0.01 26.6 0.02 40 0.02 8.9 0.01 17.8-0.01 26.7-0.02 5.07-0.02 10.1 0 15.2 0.15 29.9-1.98 54.7-23.5 77.4-19.6 18.6-42.3 23-68.2 22.9-2.51 0-5.03 0.01-7.54 0.02-5.47 0.02-10.9 0.02-16.4 0.01-8.18-0.02-16.4-0.01-24.6 0.01-14 0.03-27.9 0.03-41.8 0.02-14.1-0.01-28.3-0.01-42.4 0.01h-2.7c-3.64 0.01-7.28 0.01-10.9 0.01-36.9 0.05-73.8 0.05-111 0.05h-15.3-3.07c-22.5 0-44.9 0-67.4 0.01-5.13 0-10.3 0.01-15.4 0.01h-6.18-3.09-6.2c-58.6 0.03-117 0.04-176 0.03h-3.28-36.3-3.31-3.31-3.31c-2.21-0.01-4.42-0.01-6.63-0.01-69.8-0.01-140 0.01-209 0.07-17.6 0.01-35.2 0.02-52.8 0.03-1.62 0.01-1.62 0.01-3.28 0.01-33.4 0.02-66.8 0.03-100 0.04h-3.18c-23 0-46 0-69.1-0.01h-24.7-6.15c-32.6 0-65.3 0.02-97.9 0.05-33.8 0.03-67.6 0.03-101 0-3.63 0-7.27 0-10.9-0.01h-2.7c-14.1-0.01-28.2 0.01-42.3 0.03-13.9 0.03-27.7 0.03-41.6-0.01-8.12-0.01-16.2-0.01-24.4 0.02-6.04 0.03-12.1 0.01-18.1-0.02-2.42-0.01-4.84 0-7.25 0.02-19.9 0.16-41.4-2.93-57.3-16-0.96-0.78-1.93-1.56-2.92-2.36-14.7-12.4-24.9-28.5-28.1-47.6-0.09-2.35-0.13-4.7-0.13-7.06 0-0.7 0-1.4-0.01-2.13v-7.1c0-1.71-0.01-3.43-0.01-5.15-0.01-4.74-0.01-9.48-0.01-14.2-0.01-5.15-0.01-10.3-0.02-15.4-0.02-10.2-0.03-20.5-0.03-30.7-0.01-8.5-0.02-17-0.03-25.5v-3.72c-0.01-2.5-0.01-5-0.01-7.5-0.04-32.4-0.07-64.8-0.09-97.3 0-4.2 0-8.4-0.01-12.6-0.04-54.2-0.07-108-0.09-163-0.01-12.1-0.01-24.2-0.02-36.2v-6.82c-0.02-47.9-0.06-95.8-0.12-144-0.05-35-0.09-69.9-0.1-105v-2.18c-0.01-15.8-0.01-31.6-0.02-47.4v-19.1-2.11c-0.01-22.4-0.03-44.8-0.07-67.2-0.04-23.2-0.06-46.4-0.04-69.6 0.01-13.4-0.01-26.7-0.05-40.1-0.02-8.94-0.02-17.9 0-26.8 0.01-5.09 0.01-10.2-0.02-15.3-0.17-30.5 1.88-53.7 23.9-76.8 0.52-0.62 1.04-1.23 1.57-1.87 3.66-4.16 8-6.92 12.7-9.69 0.59-0.36 1.17-0.71 1.78-1.07 16.2-9.05 31.9-10.2 50.1-10.1zm206 164c-7.43 8.91-9.47 18.2-10.4 29.5-1.99 19.7-7.87 39.4-21.6 54.4-0.82 0.9-1.65 1.81-2.49 2.74-17.1 17.9-38.1 24.8-62.2 27-12.3 1.29-22.5 4.87-31 14.2-8.14 10.2-9.41 20.4-9.38 33.1v2.61c-0.01 2.88 0 5.75 0 8.63 0 2.09-0.01 4.17-0.01 6.26v17.2c0 6.17-0.01 12.4-0.01 18.5-0.01 12.1-0.01 24.2-0.01 36.3-0.01 9.84-0.01 19.7-0.01 29.5v8.5 2.13c-0.01 19.8-0.01 39.6-0.01 59.4v2.26 11.4 2.28 4.55c0 23.6-0.01 47.3-0.02 70.9-0.02 26.6-0.03 53.1-0.03 79.7v8.51 2.11c0 11.2 0 22.4-0.01 33.7-0.01 11.3-0.01 22.6 0 33.8 0 6.11 0 12.2-0.01 18.3-0.01 5.59-0.01 11.2 0 16.8v6.06c-0.07 23.5-0.07 23.5 11.1 43.8 8.94 8.63 20.3 10.5 32.2 11.9 26.2 3.47 48.7 12.1 65.4 33.4 7.55 10.1 12.4 21.4 15.6 33.6 0.2 0.78 0.41 1.56 0.62 2.37 1.09 4.82 1.58 9.63 2.03 14.5 1.17 12.8 3.31 24.4 13.7 33 10.3 7.58 20.2 9.19 32.8 9.26 1.01 0.01 2.01 0.02 3.04 0.03 3.37 0.03 6.74 0.06 10.1 0.08 2.43 0.02 4.85 0.04 7.28 0.06 6.67 0.06 13.3 0.11 20 0.15 3.54 0.03 7.08 0.05 10.6 0.08 68.8 0.51 138 0.55 206 0.53h37.5 2.75 11.1c34.2 0.01 68.4 0 103 0 30-0.01 59.9-0.01 89.9 0 34.2 0 68.3 0.01 102 0h11.1 2.75 37.3c72.6 0.02 145-0.07 218-0.47 5.91-0.04 11.8-0.07 17.7-0.09 7.12-0.03 14.2-0.07 21.4-0.12 3.62-0.02 7.24-0.05 10.9-0.06 3.93-0.01 7.87-0.04 11.8-0.08h3.44c12.9-0.13 24.6-1.88 34.5-10.9 8.16-8.77 11.2-19.2 12.1-30.9 1.58-20.4 7.36-37.7 20.6-53.6 0.56-0.72 1.12-1.44 1.7-2.17 8.38-10.2 19.9-18.2 32.3-22.8 0.69-0.28 1.37-0.56 2.08-0.85 9.66-3.65 20.4-4.84 30.7-5.87 14-1.43 23-5.45 32.1-16.6 5.31-7.45 6.41-14.8 6.37-23.8 0-0.88 0.01-1.77 0.01-2.67 0.01-2.96 0-5.91 0-8.86 0-2.14 0.01-4.28 0.01-6.42 0.02-5.88 0.02-11.8 0.01-17.6 0-6.34 0.01-12.7 0.02-19 0.02-12.4 0.03-24.8 0.03-37.3 0-10.1 0-20.2 0.01-30.3v-8.72-2.19c0.02-20.3 0.02-40.6 0.02-61v-2.32-11.6-2.33-4.68c0-24.3 0.02-48.5 0.04-72.8 0.03-27.3 0.05-54.5 0.05-81.8v-8.73-2.17c0-11.5 0.01-23 0.03-34.6 0.02-11.6 0.02-23.2 0.01-34.7-0.01-6.27-0.01-12.5 0.01-18.8 0.01-5.74 0.01-11.5-0.01-17.2 0-2.08 0-4.15 0.01-6.23 0.08-14.8-0.77-26.6-11.5-37.9-9.1-8.81-20.1-10.2-32.2-11.4-20.2-2.18-37.4-7.72-52.8-21.6-0.89-0.79-1.79-1.58-2.71-2.39-17.4-16.3-25.5-37.6-27.2-61.1-0.64-7.4-1.36-14-5.13-20.5-0.65-1.18-0.65-1.18-1.31-2.38-5.41-8.94-12.8-13.5-22.7-16.6-3.98-0.97-7.69-1.13-11.8-1.13h-2.04c-2.27-0.01-4.53-0.01-6.79 0-1.65-0.01-3.29-0.01-4.93-0.01-4.54-0.01-9.08 0-13.6 0-4.92 0-9.85-0.01-14.8-0.01-9.79-0.01-19.6-0.01-29.4-0.01-11.7 0-23.4-0.01-35.2-0.02-27.6-0.01-55.3-0.02-82.9-0.02-14.1-0.01-28.1-0.01-42.2-0.01-45.1-0.02-90.2-0.03-135-0.03h-6.47-13-15.2-4.35c-46.5-0.01-93.1-0.02-140-0.04-33.4-0.02-66.9-0.04-100-0.04h-2.09c-15.1 0-30.2 0-45.3-0.01h-16.2-4.03c-22.1 0-44.2-0.01-66.2-0.02-21.5-0.02-43-0.02-64.5-0.01-12.8 0-25.6 0-38.4-0.02-8.54-0.01-17.1-0.01-25.6 0-4.87 0.01-9.73 0.01-14.6 0-4.43-0.01-8.86-0.01-13.3 0-1.59 0-3.18 0-4.77-0.01-14.9-0.07-27.4 1.35-38.2 12.5z" fill="#000100"/>
<path transform="translate(361 227)" d="m0 0h3.34c1.27-0 2.53-0 3.84-0.01 1.43 0.01 2.86 0.01 4.29 0.01h4.52 12.5c4.53 0.01 9.06 0 13.6 0 7.96-0 15.9 0 23.9 0.01h35.5c19.9 0 39.8 0 59.7 0.01 19.7 0 39.4 0.01 59.1 0.01h3.71 18.6c44.1 0 88.1 0.01 132 0.02 10.7 0 21.4 0 32.1 0.01h2c31.5 0 62.9 0.01 94.4 0.01h4 39.7c27 0.01 54 0.01 81 0.01h3.76c82.9 0.01 166 0.03 249 0.04 0.2 0.58 0.4 1.16 0.61 1.75 0.91 2.63 1.83 5.26 2.75 7.89 0.31 0.91 0.63 1.82 0.95 2.75 2.12 6.06 4.33 12 7 17.9 0.38 0.82 0.75 1.64 1.13 2.47 5.65 12.1 12.8 23.2 21.6 33.3 0.72 0.83 1.44 1.66 2.18 2.52 7.98 9.88 7.98 9.88 17.8 17.5v2c0.88 0.43 0.88 0.43 1.78 0.86 2.05 1.06 3.87 2.21 5.76 3.54 0.66 0.45 1.32 0.91 1.99 1.39 0.69 0.48 1.39 0.97 2.1 1.46 15.8 10.9 31.9 18.5 50.1 24.5 0.8 0.26 1.61 0.53 2.44 0.81 0.72 0.23 1.44 0.46 2.18 0.7 1.66 0.74 1.66 0.74 2.66 2.74 0.1 2.32 0.13 4.65 0.13 6.97v2.21c0.01 2.46 0 4.93 0 7.39v5.33c0.01 4.9 0.01 9.8 0 14.7 0 5.28 0 10.6 0.01 15.8v31 25.2 3.62 7.28c0 22.8 0 45.6-0.01 68.3v58.7c0.01 22.7 0.01 45.4 0.01 68.1v7.26 3.6c-0.01 8.4 0 16.8 0 25.2v30.7c-0.01 5.22-0.01 10.4 0 15.7 0 4.78 0 9.55-0.01 14.3v5.2c0.01 2.35 0 4.7 0 7.04v3.96c-0.11 2.94-0.44 5.54-1.13 8.38-0.64 0.21-1.28 0.41-1.95 0.61-13.3 4.17-25.9 8.55-38 15.4-0.94 0.52-0.94 0.52-1.9 1.05-9.77 5.45-18.5 11.8-27.1 19-0.72 0.58-1.44 1.16-2.18 1.75-3.72 3.05-6.85 6.41-9.95 10.1-1.28 1.49-2.6 2.95-3.96 4.38-16.4 17.4-26.6 39.1-34.1 61.5-0.87 2.45-1.84 4.87-2.81 7.28h-884c-4.42-11-4.42-11-6.04-15.4-8.58-22.9-20-42-37-59.6-1.33-1.4-1.33-1.4-2.68-2.84-20.5-21.2-46.6-34-74.6-42.5-1.74-0.62-1.74-0.62-2.74-1.62-0.1-2.31-0.13-4.6-0.13-6.92v-2.23c-0.01-2.5 0-5 0-7.5 0-1.8-0.01-3.6-0.01-5.4v-14.9c0-5.35-0.01-10.7-0.01-16-0.01-10.5-0.01-21-0.01-31.4-0.01-8.51-0.01-17-0.01-25.5-0.01-24.1-0.01-48.2-0.01-72.3v-3.94-3.95c0-21.1-0.01-42.2-0.03-63.4-0.01-21.7-0.02-43.3-0.02-65 0-12.2 0-24.4-0.01-36.5-0.01-10.4-0.01-20.7 0-31.1 0-5.29 0-10.6-0.01-15.9-0.01-4.84-0.01-9.68 0-14.5v-5.27c-0.01-2.37 0-4.75 0-7.12 0-0.7-0.01-1.39-0.01-2.11 0.03-4.72 0.03-4.72 2.26-6.95 1.53-0.56 3.08-1.06 4.64-1.52 28.8-8.8 53.1-23.1 74.4-44.5 0.83-0.82 1.66-1.65 2.51-2.51 18.7-19.8 29.1-44 38.5-69.1 1.35-3.35 1.35-3.35 4.41-3.51zm292 100c-0.75 3.56-1.12 6.8-1.11 10.4v3.21c0 1.14 0.01 2.27 0.01 3.44 0.01 1.75 0.01 1.75 0.01 3.54 0 3.73 0.02 7.46 0.03 11.2 0 2.53 0.01 5.06 0.01 7.59 0.01 6.2 0.03 12.4 0.05 18.6-1.08 0-2.16-0.01-3.27-0.01-4-0.02-8-0.03-12-0.04-1.73-0.01-3.46-0.01-5.2-0.02-2.48-0.01-4.97-0.02-7.46-0.02-1.16-0.01-1.16-0.01-2.35-0.02-3.99-0.09-3.99-0.09-7.72 1.11v77c12.5-0.33 25.1-0.66 38-1v44h-38l-0.4 24.1c-0.08 4.93-0.16 9.85-0.25 14.8-0.07 3.98-0.13 7.95-0.19 11.9-0.02 1.51-0.05 3.02-0.08 4.53-0.04 2.13-0.07 4.26-0.1 6.38-0.02 1.21-0.04 2.42-0.06 3.66 0.09 3.88 0.6 7.74 1.08 11.6 12.5 0.33 25.1 0.66 38 1v228c3.57 1.2 6.81 1.14 10.5 1.13 1.15 0.01 1.15 0.01 2.32 0.01h7.59 5.27 11c4.72-0.01 9.45-0.01 14.2 0h10.9 5.22c2.44 0 4.87 0 7.3-0.01 1.08 0.01 1.08 0.01 2.18 0.01 3.41-0.01 6.14-0.3 9.48-1.14v-172c50.1 0.5 50.1 0.5 65.8 0.73 4.73 0.02 4.73 0.02 9.47 0.04 2.07 0.01 4.14 0.04 6.22 0.08 34.4 0.65 64.7-17 89.6-39.8 2.88-2.79 5.46-5.45 7.68-8.82 2.98-4.38 5.3-7.66 10.5-9.24 3.96-0.36 7.83-0.39 11.8-0.29 1.44 0 2.89-0.01 4.33-0.02 3.78-0.02 7.55 0.03 11.3 0.1 3.86 0.05 7.72 0.04 11.6 0.03 7.55 0 15.1 0.07 22.7 0.18 1.2-3.73 1.08-7.25 1.02-11.2-0.01-0.71-0.02-1.43-0.02-2.16-0.04-2.35-0.08-4.7-0.12-7.04-0.02-1.64-0.05-3.27-0.07-4.9-0.06-4.29-0.13-8.57-0.2-12.9-0.09-5.15-0.16-10.3-0.24-15.4-0.11-7.82-0.24-15.6-0.37-23.4h-36l1-10c0.14-2.8 0.25-5.6 0.32-8.41 0.03-1.11 0.03-1.11 0.06-2.24 0.07-2.33 0.13-4.65 0.18-6.97 0.05-1.59 0.09-3.19 0.14-4.78 0.1-3.86 0.2-7.73 0.3-11.6 0.89 0.08 1.77 0.15 2.68 0.22 7.42 0.57 14.8 0.92 22.2 0.85 0.89-0.01 1.78-0.01 2.7-0.02 2.14-0.01 4.28-0.03 6.42-0.05 1.08-3.5 1.13-6.74 1.13-10.4 0-1.3 0.01-2.59 0.01-3.93v-4.25-4.37c0-3.05 0-6.11-0.01-9.16 0-3.9 0-7.8 0.01-11.7v-9.03-4.31c0-2.02 0-4.04-0.01-6.06v-3.46c-0.13-3.5-0.58-6.87-1.13-10.3-0.68 0.02-1.37 0.03-2.08 0.04-7.15 0.11-14.3 0.15-21.5 0.14-2.67 0-5.33 0.04-8 0.08-3.85 0.07-7.68 0.06-11.5 0.04-1.19 0.03-2.38 0.07-3.61 0.1-3.44-0.06-6.09-0.22-9.33-1.4-3.11-3.32-4.96-6.95-7-11-1.77-2.33-3.71-4.45-5.75-6.56-0.51-0.54-1.03-1.08-1.55-1.64-22.3-23.2-52.8-38.1-85.5-38.9-4.71-0.04-9.43-0.03-14.2-0.02h-5.44c-4.91 0-9.81 0.01-14.7 0.01-5.13 0.01-10.3 0.01-15.4 0.01-9.71 0-19.4 0.01-29.1 0.02-11.1 0.01-22.1 0.02-33.2 0.02-22.8 0.01-45.5 0.03-68.2 0.05zm407 203c-10 11-14.3 26.6-13.7 41.2 1.29 13.8 7.09 28.2 17.7 37.4 16.2 11.8 31.8 17.2 52 14.4 14.9-3.31 28.9-12.1 37.6-24.7 7.66-13.5 10.3-28.3 7.27-43.5-0.92-3.21-2-6.24-3.27-9.33-0.34-0.86-0.68-1.73-1.02-2.63-5.08-11.5-14.2-19.4-25-25.4-0.62-0.39-1.24-0.79-1.87-1.2-22.7-13.5-52.3-3.55-69.7 13.6zm-608-1.44c-10.4 10.9-15.1 26.2-15.2 41 1.07 15 7.22 28.8 18.2 39.2 14.5 12.1 30.3 16.4 48.8 14.8 15.1-1.82 28.2-11.1 38-22.3 9.27-12 12.2-27.4 10.4-42.2-2.73-14.9-9.32-27.5-21.5-36.6-26.1-17-55.3-14.8-78.6 6.14z" fill="#000100"/>
<path transform="translate(741,398)" d="m0 0c12.7-0.1 25.4-0.21 38.4-0.31 3.97-0.05 7.94-0.09 12-0.14 4.93-0.02 4.93-0.02 7.26-0.03 1.59 0 3.18-0.02 4.77-0.05 21.8-0.33 40.2 5.83 56.2 21 11.4 11.3 16.4 25.4 16.6 41.3 0.07 25.9-5.32 50.4-23.7 69.8-15.2 14.5-29.7 20.6-50.6 20.1-1.57-0.01-3.15-0.01-4.72-0.02-5.74-0.03-11.5-0.13-17.2-0.22-19.3-0.22-19.3-0.22-39-0.44v-151z" fill="#000100"/>
</svg>
